<svg width="34" height="24" viewBox="0 0 34 24" fill="none" xmlns="http://www.w3.org/2000/svg">
<path d="M1.21617 18C0.946174 18 0.838174 17.838 0.910174 17.586L4.88817 5.68804C4.96017 5.49004 5.10417 5.40004 5.30217 5.40004H6.70617C6.90417 5.40004 7.04817 5.47204 7.12017 5.68804L11.1522 17.586C11.2242 17.838 11.1162 18 10.8462 18H9.82017C9.62217 18 9.47817 17.91 9.40617 17.694L8.21817 13.986H3.77217L2.60217 17.694C2.54817 17.91 2.40417 18 2.20617 18H1.21617ZM4.22217 12.546H7.75017L6.00417 7.12804H5.93217L4.22217 12.546Z" fill="#8897A2" style="fill:#8897A2;fill:color(display-p3 0.5333 0.5922 0.6353);fill-opacity:1;"/>
<path d="M13.3846 18C13.1506 18 13.0246 17.856 13.0246 17.64V9.39604C13.0246 9.18004 13.1506 9.03604 13.3846 9.03604H14.1946C14.4106 9.03604 14.5546 9.18004 14.5546 9.39604V10.26C15.3286 9.32404 16.4626 8.80204 17.6506 8.80204C19.4686 8.80204 20.8726 9.99004 20.8726 11.97V17.64C20.8726 17.856 20.7286 18 20.5126 18H19.6486C19.4146 18 19.2886 17.856 19.2886 17.64V12.42C19.2886 10.908 18.2986 10.26 17.2186 10.26C16.1746 10.26 15.2026 10.89 14.5906 11.538V17.64C14.5906 17.856 14.4646 18 14.2306 18H13.3846Z" fill="#8897A2" style="fill:#8897A2;fill:color(display-p3 0.5333 0.5922 0.6353);fill-opacity:1;"/>
<path d="M27.3339 18.234C24.8499 18.234 22.8879 16.254 22.8879 13.536C22.8879 10.8 24.8319 8.80204 27.3339 8.80204C28.8459 8.80204 30.0699 9.59404 30.6279 10.638V5.40004C30.6279 5.16604 30.7719 5.04004 30.9879 5.04004H31.8519C32.0859 5.04004 32.2119 5.16604 32.2119 5.40004V17.64C32.2119 17.856 32.0859 18 31.8519 18H30.9879C30.7719 18 30.6279 17.856 30.6279 17.64V16.398C30.0699 17.442 28.8459 18.234 27.3339 18.234ZM27.5859 16.848C29.4039 16.848 30.6639 15.372 30.6639 13.536C30.6639 11.646 29.4039 10.224 27.5859 10.224C25.7679 10.224 24.5079 11.646 24.5079 13.536C24.5079 15.372 25.7679 16.848 27.5859 16.848Z" fill="#8897A2" style="fill:#8897A2;fill:color(display-p3 0.5333 0.5922 0.6353);fill-opacity:1;"/>
</svg>
