<svg width="59" height="24" viewBox="0 0 59 24" fill="none" xmlns="http://www.w3.org/2000/svg">
<path d="M7.7593 18.216C4.1413 18.216 1.2793 15.498 1.2793 11.7C1.2793 7.90204 4.1413 5.18404 7.7593 5.18404C10.4053 5.18404 12.7993 6.67804 13.7173 9.23404C13.8073 9.46804 13.6813 9.63004 13.4113 9.63004H12.3493C12.1513 9.63004 12.0253 9.54004 11.9353 9.34204C11.2333 7.68604 9.7033 6.67804 7.7593 6.67804C4.9693 6.67804 2.9893 8.83804 2.9893 11.7C2.9893 14.562 4.9693 16.704 7.7593 16.704C9.7033 16.704 11.2333 15.696 11.9353 14.04C12.0253 13.842 12.1513 13.752 12.3493 13.752H13.4113C13.6813 13.752 13.7893 13.932 13.6993 14.184C12.7993 16.722 10.4053 18.216 7.7593 18.216Z" fill="#8897A2" style="fill:#8897A2;fill:color(display-p3 0.5333 0.5922 0.6353);fill-opacity:1;"/>
<path d="M19.7556 18.234C17.1816 18.234 15.1116 16.254 15.1116 13.536C15.1116 10.8 17.1816 8.80204 19.7556 8.80204C22.3296 8.80204 24.3996 10.8 24.3996 13.536C24.3996 16.254 22.3296 18.234 19.7556 18.234ZM19.7556 16.83C21.5556 16.83 22.7976 15.39 22.7976 13.536C22.7976 11.664 21.5556 10.224 19.7556 10.224C17.9376 10.224 16.6956 11.664 16.6956 13.536C16.6956 15.39 17.9376 16.83 19.7556 16.83Z" fill="#8897A2" style="fill:#8897A2;fill:color(display-p3 0.5333 0.5922 0.6353);fill-opacity:1;"/>
<path d="M30.2627 18.234C27.7787 18.234 25.8167 16.254 25.8167 13.536C25.8167 10.8 27.7607 8.80204 30.2627 8.80204C31.7747 8.80204 32.9987 9.59404 33.5567 10.638V5.40004C33.5567 5.16604 33.7007 5.04004 33.9167 5.04004H34.7807C35.0147 5.04004 35.1407 5.16604 35.1407 5.40004V17.64C35.1407 17.856 35.0147 18 34.7807 18H33.9167C33.7007 18 33.5567 17.856 33.5567 17.64V16.398C32.9987 17.442 31.7747 18.234 30.2627 18.234ZM30.5147 16.848C32.3327 16.848 33.5927 15.372 33.5927 13.536C33.5927 11.646 32.3327 10.224 30.5147 10.224C28.6967 10.224 27.4367 11.646 27.4367 13.536C27.4367 15.372 28.6967 16.848 30.5147 16.848Z" fill="#8897A2" style="fill:#8897A2;fill:color(display-p3 0.5333 0.5922 0.6353);fill-opacity:1;"/>
<path d="M41.8685 18.234C39.2405 18.234 37.2425 16.272 37.2425 13.536C37.2425 10.818 39.2585 8.80204 41.8325 8.80204C44.1365 8.80204 46.2605 10.368 46.4045 13.626C46.4045 13.86 46.2785 13.986 46.0445 13.986H38.8985C39.0245 15.606 40.1765 16.866 41.8685 16.866C42.9305 16.866 43.7945 16.362 44.3165 15.588C44.4245 15.408 44.5685 15.336 44.7485 15.354L45.7025 15.426C45.9545 15.444 46.0805 15.606 45.9545 15.84C45.1805 17.334 43.6505 18.234 41.8685 18.234ZM44.7485 12.834C44.5685 11.322 43.4345 10.152 41.8325 10.152C40.2125 10.152 39.0785 11.304 38.8805 12.834H44.7485Z" fill="#8897A2" style="fill:#8897A2;fill:color(display-p3 0.5333 0.5922 0.6353);fill-opacity:1;"/>
<path d="M52.2529 18.234C49.7689 18.234 47.8069 16.254 47.8069 13.536C47.8069 10.8 49.7509 8.80204 52.2529 8.80204C53.7649 8.80204 54.9889 9.59404 55.5469 10.638V5.40004C55.5469 5.16604 55.6909 5.04004 55.9069 5.04004H56.7709C57.0049 5.04004 57.1309 5.16604 57.1309 5.40004V17.64C57.1309 17.856 57.0049 18 56.7709 18H55.9069C55.6909 18 55.5469 17.856 55.5469 17.64V16.398C54.9889 17.442 53.7649 18.234 52.2529 18.234ZM52.5049 16.848C54.3229 16.848 55.5829 15.372 55.5829 13.536C55.5829 11.646 54.3229 10.224 52.5049 10.224C50.6869 10.224 49.4269 11.646 49.4269 13.536C49.4269 15.372 50.6869 16.848 52.5049 16.848Z" fill="#8897A2" style="fill:#8897A2;fill:color(display-p3 0.5333 0.5922 0.6353);fill-opacity:1;"/>
</svg>
