<svg width="80" height="24" viewBox="0 0 80 24" fill="none" xmlns="http://www.w3.org/2000/svg">
<path d="M2.01625 18C1.78225 18 1.65625 17.856 1.65625 17.64V5.76004C1.65625 5.52604 1.78225 5.40004 2.01625 5.40004H5.40025C9.72025 5.40004 12.0783 7.95604 12.0783 11.7C12.0783 15.444 9.72025 18 5.40025 18H2.01625ZM5.47225 16.56C8.31625 16.56 10.3863 14.94 10.3863 11.7C10.3863 8.47804 8.31625 6.84004 5.47225 6.84004H3.29425V16.56H5.47225Z" fill="#8897A2" style="fill:#8897A2;fill:color(display-p3 0.5333 0.5922 0.6353);fill-opacity:1;"/>
<path d="M18.2319 18.234C15.6039 18.234 13.6059 16.272 13.6059 13.536C13.6059 10.818 15.6219 8.80204 18.1959 8.80204C20.4999 8.80204 22.6239 10.368 22.7679 13.626C22.7679 13.86 22.6419 13.986 22.4079 13.986H15.2619C15.3879 15.606 16.5399 16.866 18.2319 16.866C19.2939 16.866 20.1579 16.362 20.6799 15.588C20.7879 15.408 20.9319 15.336 21.1119 15.354L22.0659 15.426C22.3179 15.444 22.4439 15.606 22.3179 15.84C21.5439 17.334 20.0139 18.234 18.2319 18.234ZM21.1119 12.834C20.9319 11.322 19.7979 10.152 18.1959 10.152C16.5759 10.152 15.4419 11.304 15.2439 12.834H21.1119Z" fill="#8897A2" style="fill:#8897A2;fill:color(display-p3 0.5333 0.5922 0.6353);fill-opacity:1;"/>
<path d="M27.2843 18.234C25.9703 18.234 24.9083 17.784 24.2063 17.262C24.0263 17.118 24.0083 16.938 24.1343 16.758L24.5663 16.218C24.6923 16.02 24.8723 16.002 25.0703 16.146C25.7003 16.632 26.4923 16.974 27.3203 16.974C28.3643 16.974 29.1203 16.434 29.1203 15.624C29.1203 15.03 28.7963 14.67 27.9863 14.382L26.2223 13.752C24.8003 13.248 24.2243 12.438 24.2243 11.394C24.2243 9.82804 25.5563 8.80204 27.4463 8.80204C28.3823 8.80204 29.4083 9.07204 30.2183 9.70204C30.3983 9.82804 30.3983 10.026 30.2543 10.206L29.8763 10.638C29.7323 10.818 29.5523 10.836 29.3543 10.692C28.7423 10.242 28.0223 10.026 27.4103 10.026C26.5283 10.026 25.7543 10.458 25.7543 11.25C25.7543 11.772 26.0603 12.15 26.7983 12.42L28.7243 13.104C30.1283 13.608 30.6863 14.472 30.6863 15.498C30.6863 16.956 29.5523 18.234 27.2843 18.234Z" fill="#8897A2" style="fill:#8897A2;fill:color(display-p3 0.5333 0.5922 0.6353);fill-opacity:1;"/>
<path d="M33.4665 18C33.2505 18 33.1065 17.856 33.1065 17.64V10.386H32.1165C31.8825 10.386 31.7565 10.242 31.7565 10.026V9.39604C31.7565 9.18004 31.8825 9.03604 32.1165 9.03604H34.3485C34.5645 9.03604 34.7085 9.18004 34.7085 9.39604V17.64C34.7085 17.856 34.5645 18 34.3485 18H33.4665ZM33.8265 7.36204C33.1785 7.36204 32.6385 6.85804 32.6385 6.19204C32.6385 5.54404 33.1785 5.04004 33.8265 5.04004C34.4565 5.04004 34.9965 5.54404 34.9965 6.19204C34.9965 6.85804 34.4565 7.36204 33.8265 7.36204Z" fill="#8897A2" style="fill:#8897A2;fill:color(display-p3 0.5333 0.5922 0.6353);fill-opacity:1;"/>
<path d="M40.3914 21.51C40.1574 21.51 40.0314 21.384 40.0314 21.15V20.538C40.0314 20.322 40.1574 20.178 40.3914 20.178H43.0914C43.9014 20.178 44.5134 19.908 44.5134 18.99V16.344C43.9554 17.388 42.7314 18.18 41.2194 18.18C38.7534 18.18 36.7914 16.272 36.7914 13.5C36.7914 10.728 38.7354 8.80204 41.2194 8.80204C42.7314 8.80204 43.9554 9.59404 44.5134 10.638V9.39604C44.5134 9.18004 44.6394 9.03604 44.8734 9.03604H45.7194C45.9354 9.03604 46.0794 9.18004 46.0794 9.39604V19.08C46.0794 20.448 45.2694 21.51 43.5234 21.51H40.3914ZM41.4534 16.812C43.2714 16.812 44.5314 15.39 44.5314 13.5C44.5314 11.592 43.2714 10.188 41.4534 10.188C39.6534 10.188 38.3934 11.592 38.3934 13.5C38.3934 15.39 39.6534 16.812 41.4534 16.812Z" fill="#8897A2" style="fill:#8897A2;fill:color(display-p3 0.5333 0.5922 0.6353);fill-opacity:1;"/>
<path d="M49.1905 18C48.9565 18 48.8305 17.856 48.8305 17.64V9.39604C48.8305 9.18004 48.9565 9.03604 49.1905 9.03604H50.0005C50.2165 9.03604 50.3605 9.18004 50.3605 9.39604V10.26C51.1345 9.32404 52.2685 8.80204 53.4565 8.80204C55.2745 8.80204 56.6785 9.99004 56.6785 11.97V17.64C56.6785 17.856 56.5345 18 56.3185 18H55.4545C55.2205 18 55.0945 17.856 55.0945 17.64V12.42C55.0945 10.908 54.1045 10.26 53.0245 10.26C51.9805 10.26 51.0085 10.89 50.3965 11.538V17.64C50.3965 17.856 50.2705 18 50.0365 18H49.1905Z" fill="#8897A2" style="fill:#8897A2;fill:color(display-p3 0.5333 0.5922 0.6353);fill-opacity:1;"/>
<path d="M63.3198 18.234C60.6918 18.234 58.6937 16.272 58.6937 13.536C58.6937 10.818 60.7097 8.80204 63.2837 8.80204C65.5877 8.80204 67.7118 10.368 67.8558 13.626C67.8558 13.86 67.7298 13.986 67.4958 13.986H60.3498C60.4758 15.606 61.6278 16.866 63.3198 16.866C64.3818 16.866 65.2458 16.362 65.7678 15.588C65.8758 15.408 66.0198 15.336 66.1998 15.354L67.1537 15.426C67.4057 15.444 67.5318 15.606 67.4058 15.84C66.6318 17.334 65.1018 18.234 63.3198 18.234ZM66.1998 12.834C66.0198 11.322 64.8857 10.152 63.2837 10.152C61.6637 10.152 60.5297 11.304 60.3317 12.834H66.1998Z" fill="#8897A2" style="fill:#8897A2;fill:color(display-p3 0.5333 0.5922 0.6353);fill-opacity:1;"/>
<path d="M73.7042 18.234C71.2202 18.234 69.2582 16.254 69.2582 13.536C69.2582 10.8 71.2022 8.80204 73.7042 8.80204C75.2162 8.80204 76.4402 9.59404 76.9982 10.638V5.40004C76.9982 5.16604 77.1422 5.04004 77.3582 5.04004H78.2222C78.4562 5.04004 78.5822 5.16604 78.5822 5.40004V17.64C78.5822 17.856 78.4562 18 78.2222 18H77.3582C77.1422 18 76.9982 17.856 76.9982 17.64V16.398C76.4402 17.442 75.2162 18.234 73.7042 18.234ZM73.9562 16.848C75.7742 16.848 77.0342 15.372 77.0342 13.536C77.0342 11.646 75.7742 10.224 73.9562 10.224C72.1382 10.224 70.8782 11.646 70.8782 13.536C70.8782 15.372 72.1382 16.848 73.9562 16.848Z" fill="#8897A2" style="fill:#8897A2;fill:color(display-p3 0.5333 0.5922 0.6353);fill-opacity:1;"/>
</svg>
