<svg width="25" height="24" viewBox="0 0 25 24" fill="none" xmlns="http://www.w3.org/2000/svg">
<path d="M12.8016 2H9.50156C7.60156 2 6.10156 3.5 6.10156 5.3C6.10156 7.1 7.60156 8.6 9.40156 8.6H12.8016V2Z" stroke="#22262A" stroke-width="1.5" stroke-miterlimit="10"/>
<path d="M12.7992 8.7002H9.49922C7.69922 8.7002 6.19922 10.2002 6.19922 12.0002C6.19922 13.8002 7.69922 15.3002 9.49922 15.3002H12.7992V8.7002Z" stroke="#22262A" stroke-width="1.5" stroke-miterlimit="10"/>
<path d="M12.7992 15.2998H9.49922C7.69922 15.2998 6.19922 16.7998 6.19922 18.5998C6.19922 20.3998 7.69922 21.8998 9.49922 21.8998C11.2992 21.8998 12.7992 20.3998 12.7992 18.5998V15.2998Z" stroke="#22262A" stroke-width="1.5" stroke-miterlimit="10"/>
<path d="M12.8008 2H16.1008C17.9008 2 19.4008 3.5 19.4008 5.3C19.4008 7.1 17.9008 8.6 16.1008 8.6H12.8008V2Z" stroke="#22262A" stroke-width="1.5" stroke-miterlimit="10"/>
<path d="M16.1008 8.7002C17.9008 8.7002 19.4008 10.2002 19.4008 12.0002C19.4008 13.8002 17.9008 15.3002 16.1008 15.3002C14.3008 15.3002 12.8008 13.8002 12.8008 12.0002C12.8008 10.2002 14.3008 8.7002 16.1008 8.7002Z" stroke="#22262A" stroke-width="1.5" stroke-miterlimit="10"/>
</svg>
