<svg width="25" height="24" viewBox="0 0 25 24" fill="none" xmlns="http://www.w3.org/2000/svg">
<path d="M9.19922 22H15.1992C20.1992 22 22.1992 20 22.1992 15V9C22.1992 4 20.1992 2 15.1992 2H9.19922C4.19922 2 2.19922 4 2.19922 9V15C2.19922 20 4.19922 22 9.19922 22Z" stroke="#22262A" stroke-width="1.5" stroke-linecap="round" stroke-linejoin="round"/>
<path d="M9.19922 10C10.3038 10 11.1992 9.10457 11.1992 8C11.1992 6.89543 10.3038 6 9.19922 6C8.09465 6 7.19922 6.89543 7.19922 8C7.19922 9.10457 8.09465 10 9.19922 10Z" stroke="#22262A" stroke-width="1.5" stroke-linecap="round" stroke-linejoin="round"/>
<path d="M2.87109 18.9496L7.80109 15.6396C8.59109 15.1096 9.73109 15.1696 10.4411 15.7796L10.7711 16.0696C11.5511 16.7396 12.8111 16.7396 13.5911 16.0696L17.7511 12.4996C18.5311 11.8296 19.7911 11.8296 20.5711 12.4996L22.2011 13.8996" stroke="#22262A" stroke-width="1.5" stroke-linecap="round" stroke-linejoin="round"/>
</svg>
