<svg width="44" height="24" viewBox="0 0 44 24" fill="none" xmlns="http://www.w3.org/2000/svg">
<path d="M1.98109 18C1.74709 18 1.62109 17.856 1.62109 17.64V5.76004C1.62109 5.52604 1.74709 5.40004 1.98109 5.40004H2.89909C3.11509 5.40004 3.25909 5.52604 3.25909 5.76004V10.854H9.16309V5.76004C9.16309 5.52604 9.28909 5.40004 9.52309 5.40004H10.4411C10.6571 5.40004 10.8011 5.52604 10.8011 5.76004V17.64C10.8011 17.856 10.6571 18 10.4411 18H9.52309C9.28909 18 9.16309 17.856 9.16309 17.64V12.312H3.25909V17.64C3.25909 17.856 3.11509 18 2.89909 18H1.98109Z" fill="#8897A2" style="fill:#8897A2;fill:color(display-p3 0.5333 0.5922 0.6353);fill-opacity:1;"/>
<path d="M16.2298 18.252C14.2138 18.252 12.9538 17.064 12.9538 15.372C12.9538 13.734 14.0878 12.762 15.9598 12.762H17.8498C18.8218 12.762 19.1458 12.366 19.1458 11.718V11.628C19.1458 10.62 18.2818 10.098 17.0398 10.098C15.9958 10.098 15.1678 10.494 14.6278 10.998C14.5018 11.106 14.3398 11.142 14.1958 11.034L13.6018 10.62C13.4038 10.476 13.3678 10.224 13.5478 10.044C14.3398 9.32404 15.5818 8.80204 17.0578 8.80204C19.2178 8.80204 20.7478 9.77404 20.7478 11.916V17.622C20.7478 17.82 20.5858 18 20.3878 18H19.5418C19.3438 18 19.1638 17.838 19.1638 17.64V16.65C18.7318 17.64 17.6158 18.252 16.2298 18.252ZM16.6618 17.082C18.0118 17.082 19.1638 16.272 19.1638 14.616V13.428C18.9658 13.842 18.4258 13.896 17.9218 13.896H16.3018C15.1858 13.896 14.5738 14.49 14.5738 15.336C14.5738 16.236 15.1498 17.082 16.6618 17.082Z" fill="#8897A2" style="fill:#8897A2;fill:color(display-p3 0.5333 0.5922 0.6353);fill-opacity:1;"/>
<path d="M23.7901 18C23.5561 18 23.4301 17.856 23.4301 17.64V9.39604C23.4301 9.18004 23.5561 9.03604 23.7901 9.03604H24.6001C24.8161 9.03604 24.9601 9.18004 24.9601 9.39604V10.26C25.7341 9.32404 26.8681 8.80204 28.0561 8.80204C29.8741 8.80204 31.2781 9.99004 31.2781 11.97V17.64C31.2781 17.856 31.1341 18 30.9181 18H30.0541C29.8201 18 29.6941 17.856 29.6941 17.64V12.42C29.6941 10.908 28.7041 10.26 27.6241 10.26C26.5801 10.26 25.6081 10.89 24.9961 11.538V17.64C24.9961 17.856 24.8701 18 24.6361 18H23.7901Z" fill="#8897A2" style="fill:#8897A2;fill:color(display-p3 0.5333 0.5922 0.6353);fill-opacity:1;"/>
<path d="M37.7394 18.234C35.2554 18.234 33.2934 16.254 33.2934 13.536C33.2934 10.8 35.2374 8.80204 37.7394 8.80204C39.2514 8.80204 40.4754 9.59404 41.0334 10.638V5.40004C41.0334 5.16604 41.1774 5.04004 41.3934 5.04004H42.2574C42.4914 5.04004 42.6174 5.16604 42.6174 5.40004V17.64C42.6174 17.856 42.4914 18 42.2574 18H41.3934C41.1774 18 41.0334 17.856 41.0334 17.64V16.398C40.4754 17.442 39.2514 18.234 37.7394 18.234ZM37.9914 16.848C39.8094 16.848 41.0694 15.372 41.0694 13.536C41.0694 11.646 39.8094 10.224 37.9914 10.224C36.1734 10.224 34.9134 11.646 34.9134 13.536C34.9134 15.372 36.1734 16.848 37.9914 16.848Z" fill="#8897A2" style="fill:#8897A2;fill:color(display-p3 0.5333 0.5922 0.6353);fill-opacity:1;"/>
</svg>
