<svg width="18" height="18" viewBox="0 0 18 18" fill="none" xmlns="http://www.w3.org/2000/svg">
<path d="M2.25 3.9375C1.93359 3.9375 1.6875 4.21875 1.6875 4.5V5.30859L7.73438 10.2656C8.47266 10.8633 9.49219 10.8633 10.2305 10.2656L16.3125 5.30859V4.5C16.3125 4.21875 16.0312 3.9375 15.75 3.9375H2.25ZM1.6875 7.48828V13.5C1.6875 13.8164 1.93359 14.0625 2.25 14.0625H15.75C16.0312 14.0625 16.3125 13.8164 16.3125 13.5V7.48828L11.3203 11.5664C9.94922 12.6914 8.01562 12.6914 6.67969 11.5664L1.6875 7.48828ZM0 4.5C0 3.26953 0.984375 2.25 2.25 2.25H15.75C16.9805 2.25 18 3.26953 18 4.5V13.5C18 14.7656 16.9805 15.75 15.75 15.75H2.25C0.984375 15.75 0 14.7656 0 13.5V4.5Z" fill="#374D5E" style="fill:#374D5E;fill:color(display-p3 0.2175 0.3031 0.3686);fill-opacity:1;"/>
</svg>
