<svg width="18" height="18" viewBox="0 0 18 18" fill="none" xmlns="http://www.w3.org/2000/svg">
<path d="M9.01758 4.93945C11.2324 4.93945 13.0605 6.76758 13.0605 8.98242C13.0605 11.2324 11.2324 13.0254 9.01758 13.0254C6.76758 13.0254 4.97461 11.2324 4.97461 8.98242C4.97461 6.76758 6.76758 4.93945 9.01758 4.93945ZM9.01758 11.6191C10.459 11.6191 11.6191 10.459 11.6191 8.98242C11.6191 7.54102 10.459 6.38086 9.01758 6.38086C7.54102 6.38086 6.38086 7.54102 6.38086 8.98242C6.38086 10.459 7.57617 11.6191 9.01758 11.6191ZM14.1504 4.79883C14.1504 4.27148 13.7285 3.84961 13.2012 3.84961C12.6738 3.84961 12.252 4.27148 12.252 4.79883C12.252 5.32617 12.6738 5.74805 13.2012 5.74805C13.7285 5.74805 14.1504 5.32617 14.1504 4.79883ZM16.8223 5.74805C16.8926 7.04883 16.8926 10.9512 16.8223 12.252C16.752 13.5176 16.4707 14.6074 15.5566 15.5566C14.6426 16.4707 13.5176 16.752 12.252 16.8223C10.9512 16.8926 7.04883 16.8926 5.74805 16.8223C4.48242 16.752 3.39258 16.4707 2.44336 15.5566C1.5293 14.6074 1.24805 13.5176 1.17773 12.252C1.10742 10.9512 1.10742 7.04883 1.17773 5.74805C1.24805 4.48242 1.5293 3.35742 2.44336 2.44336C3.39258 1.5293 4.48242 1.24805 5.74805 1.17773C7.04883 1.10742 10.9512 1.10742 12.252 1.17773C13.5176 1.24805 14.6426 1.5293 15.5566 2.44336C16.4707 3.35742 16.752 4.48242 16.8223 5.74805ZM15.1348 13.623C15.5566 12.6035 15.4512 10.1426 15.4512 8.98242C15.4512 7.85742 15.5566 5.39648 15.1348 4.3418C14.8535 3.67383 14.3262 3.11133 13.6582 2.86523C12.6035 2.44336 10.1426 2.54883 9.01758 2.54883C7.85742 2.54883 5.39648 2.44336 4.37695 2.86523C3.67383 3.14648 3.14648 3.67383 2.86523 4.3418C2.44336 5.39648 2.54883 7.85742 2.54883 8.98242C2.54883 10.1426 2.44336 12.6035 2.86523 13.623C3.14648 14.3262 3.67383 14.8535 4.37695 15.1348C5.39648 15.5566 7.85742 15.4512 9.01758 15.4512C10.1426 15.4512 12.6035 15.5566 13.6582 15.1348C14.3262 14.8535 14.8887 14.3262 15.1348 13.623Z" fill="#374D5E" style="fill:#374D5E;fill:color(display-p3 0.2175 0.3031 0.3686);fill-opacity:1;"/>
</svg>
