<svg width="80" height="24" viewBox="0 0 80 24" fill="none" xmlns="http://www.w3.org/2000/svg">
<path d="M50.81 3.94012C49.27 7.78012 45.41 13.0001 42.18 15.5901L40.21 17.1701C39.96 17.3501 39.71 17.5101 39.43 17.6201C39.43 17.4401 39.42 17.2401 39.39 17.0501C39.28 16.2101 38.9 15.4301 38.23 14.7601C37.55 14.0801 36.72 13.6801 35.87 13.5701C35.67 13.5601 35.47 13.5401 35.27 13.5601C35.38 13.2501 35.55 12.9601 35.76 12.7201L37.32 10.7501C39.9 7.52012 45.14 3.64012 48.97 2.11012C49.56 1.89012 50.13 2.05012 50.49 2.42012C50.87 2.79012 51.05 3.36012 50.81 3.94012Z" stroke="#374D5E" style="stroke:#374D5E;stroke:color(display-p3 0.2175 0.3031 0.3686);stroke-opacity:1;" stroke-width="1.5" stroke-linecap="round" stroke-linejoin="round"/>
<path d="M39.4303 17.6201C39.4303 18.7201 39.0103 19.77 38.2203 20.57C37.6103 21.18 36.7803 21.6001 35.7903 21.7301L33.3303 22.0001C31.9903 22.1501 30.8403 21.01 31.0003 19.65L31.2703 17.1901C31.5103 15.0001 33.3403 13.6001 35.2803 13.5601C35.4803 13.5501 35.6903 13.56 35.8803 13.57C36.7303 13.68 37.5603 14.0701 38.2403 14.7601C38.9103 15.4301 39.2903 16.21 39.4003 17.05C39.4103 17.24 39.4303 17.4301 39.4303 17.6201Z" stroke="#374D5E" style="stroke:#374D5E;stroke:color(display-p3 0.2175 0.3031 0.3686);stroke-opacity:1;" stroke-width="1.5" stroke-linecap="round" stroke-linejoin="round"/>
<path d="M43.2398 14.47C43.2398 11.86 41.1198 9.73999 38.5098 9.73999" stroke="#374D5E" style="stroke:#374D5E;stroke:color(display-p3 0.2175 0.3031 0.3686);stroke-opacity:1;" stroke-width="1.5" stroke-linecap="round" stroke-linejoin="round"/>
<path d="M49.1197 12.73L49.8597 13.46C51.3497 14.95 51.3497 16.42 49.8597 17.91L46.8997 20.87C45.4297 22.34 43.9397 22.34 42.4697 20.87" stroke="#374D5E" style="stroke:#374D5E;stroke:color(display-p3 0.2175 0.3031 0.3686);stroke-opacity:1;" stroke-width="1.5" stroke-linecap="round"/>
<path d="M32.1098 10.5101C30.6398 9.02006 30.6398 7.55006 32.1098 6.06006L35.0698 3.10006C36.5398 1.63006 38.0298 1.63006 39.4998 3.10006L40.2398 3.84006" stroke="#374D5E" style="stroke:#374D5E;stroke:color(display-p3 0.2175 0.3031 0.3686);stroke-opacity:1;" stroke-width="1.5" stroke-linecap="round"/>
<path d="M40.2498 3.8501L36.5498 7.5501" stroke="#374D5E" style="stroke:#374D5E;stroke:color(display-p3 0.2175 0.3031 0.3686);stroke-opacity:1;" stroke-width="1.5" stroke-linecap="round"/>
<path d="M49.1202 12.73L46.1602 15.68" stroke="#374D5E" style="stroke:#374D5E;stroke:color(display-p3 0.2175 0.3031 0.3686);stroke-opacity:1;" stroke-width="1.5" stroke-linecap="round"/>
</svg>
