<svg width="44" height="24" viewBox="0 0 44 24" fill="none" xmlns="http://www.w3.org/2000/svg">
<path d="M23.48 18.35L26.58 20.75C26.98 21.15 27.88 21.35 28.48 21.35H32.28C33.48 21.35 34.78 20.45 35.08 19.25L37.48 11.95C37.98 10.55 37.08 9.34997 35.58 9.34997H31.58C30.98 9.34997 30.48 8.84997 30.58 8.14997L31.08 4.94997C31.28 4.04997 30.68 3.04997 29.78 2.74997C28.98 2.44997 27.98 2.84997 27.58 3.44997L23.48 9.54997" stroke="#374D5E" style="stroke:#374D5E;stroke:color(display-p3 0.2175 0.3031 0.3686);stroke-opacity:1;" stroke-width="1.5" stroke-miterlimit="10"/>
<path d="M18.3799 18.3499V8.5499C18.3799 7.1499 18.9799 6.6499 20.3799 6.6499H21.3799C22.7799 6.6499 23.3799 7.1499 23.3799 8.5499V18.3499C23.3799 19.7499 22.7799 20.2499 21.3799 20.2499H20.3799C18.9799 20.2499 18.3799 19.7499 18.3799 18.3499Z" stroke="#374D5E" style="stroke:#374D5E;stroke:color(display-p3 0.2175 0.3031 0.3686);stroke-opacity:1;" stroke-width="1.5" stroke-linecap="round" stroke-linejoin="round"/>
</svg>
