<svg width="34" height="24" viewBox="0 0 34 24" fill="none" xmlns="http://www.w3.org/2000/svg">
<path d="M15.7246 17.1663C15.7246 18.8133 16.3625 20.1557 17.6382 21.1934C18.914 22.2312 20.6991 22.75 22.9935 22.75C25.8687 22.75 28.2489 21.8075 30.1339 19.9224C31.827 18.2208 32.7598 16.1428 32.9322 13.6884C32.9651 13.2203 32.5811 12.8392 32.1118 12.8392C31.6425 12.8392 31.2659 13.2204 31.2328 13.6886C31.0771 15.8902 30.3015 17.6635 28.9058 19.0085C27.3349 20.5127 25.3641 21.2648 22.9935 21.2648C21.337 21.2648 20.0088 20.884 19.0092 20.1224C18.0191 19.3512 17.524 18.3563 17.524 17.1377C17.524 16.0809 17.881 15.1812 18.595 14.4386C19.3186 13.6865 20.5706 12.8296 22.3509 11.8681L25.1642 10.3686C26.1734 9.82592 27.0112 9.16425 27.6776 8.38356C28.3536 7.60288 28.6916 6.67463 28.6916 5.59881C28.6916 4.30402 28.1917 3.25676 27.1921 2.45703C26.1924 1.64779 24.9214 1.24316 23.3791 1.24316C21.7797 1.24316 20.4516 1.68587 19.3948 2.57128C18.338 3.44717 17.8096 4.57535 17.8096 5.95583C17.8096 6.8698 18.0762 7.75045 18.6093 8.59777C19.152 9.43558 20.0565 10.4924 21.3227 11.7681L31.7218 22.2231C31.8755 22.3776 32.0844 22.4644 32.3023 22.4644C33.0312 22.4644 33.3967 21.5836 32.8819 21.0675L22.6651 10.8256C21.5417 9.69263 20.7419 8.77866 20.2659 8.08366C19.7994 7.37915 19.5661 6.66987 19.5661 5.95583C19.5661 5.02281 19.9184 4.25165 20.6229 3.64234C21.337 3.03302 22.2557 2.72837 23.3791 2.72837C24.4549 2.72837 25.3165 3.00922 25.9639 3.57093C26.6113 4.13264 26.935 4.8324 26.935 5.67021C26.935 6.43185 26.6875 7.09829 26.1924 7.66952C25.6974 8.24075 24.969 8.77866 24.0075 9.28325L21.2656 10.7256C19.3234 11.7348 17.9143 12.7154 17.0384 13.6675C16.1626 14.6195 15.7246 15.7858 15.7246 17.1663Z" fill="#374D5E" style="fill:#374D5E;fill:color(display-p3 0.2175 0.3031 0.3686);fill-opacity:1;"/>
</svg>
