<svg width="64" height="24" viewBox="0 0 64 24" fill="none" xmlns="http://www.w3.org/2000/svg">
<path fill-rule="evenodd" clip-rule="evenodd" d="M9.14377 1.8877H10.4589C10.9996 1.8877 11.4379 2.32603 11.4379 2.86673V5.15524C11.4379 5.60049 11.7384 5.98968 12.1692 6.10239L12.6903 6.23874L14.8108 6.58162L17.7335 6.95456C17.8351 6.96753 17.9381 6.96447 18.0388 6.94548L18.5523 6.84867C18.8222 6.79776 19.1011 6.86262 19.3209 7.0274L19.8951 7.45786C20.1417 7.64275 20.2869 7.93298 20.2869 8.24121V10.6532C20.2869 10.8033 20.3215 10.9515 20.3879 11.0862L20.7795 11.8803C20.8845 12.0932 20.9086 12.3369 20.8473 12.5662L20.3847 14.296C20.3218 14.5314 20.1733 14.7349 19.9683 14.8667L17.9695 16.1514C17.9145 16.1868 17.8633 16.2275 17.8164 16.273L16.2912 17.7558C16.1407 17.9022 16.0412 18.093 16.0074 18.3002L15.7559 19.8425C15.7396 19.9421 15.7389 20.0437 15.7537 20.1436L15.8465 20.7704C15.9483 21.4574 15.3224 22.029 14.6475 21.8654L12.9444 21.4528C12.6367 21.3782 12.384 21.1594 12.2662 20.8655L11.1461 18.0707C11.1222 18.0111 11.0926 17.9541 11.0576 17.9004L9.8653 16.0708C9.82144 16.0035 9.76945 15.9419 9.71052 15.8872L8.90516 15.141C8.81157 15.0542 8.70192 14.9866 8.58239 14.942L8.14914 14.7801C7.94418 14.7035 7.71948 14.6978 7.51089 14.7638L7.04184 14.9124C6.84238 14.9755 6.6684 15.1009 6.54541 15.2702L6.42524 15.4355C6.11397 15.8639 5.51855 15.9671 5.08124 15.6686L4.14848 15.0318C3.98653 14.9212 3.86151 14.7646 3.78962 14.5822L3.14738 12.9524C3.06197 12.7357 2.90209 12.5566 2.69645 12.4471L1.42935 11.7728C1.33033 11.7201 1.24745 11.6416 1.18954 11.5455V11.5455C0.940322 11.1321 1.23804 10.605 1.72075 10.605H5.3207C5.86141 10.605 6.29974 10.1667 6.29974 9.62595V2.86673C6.29974 2.32603 6.73807 1.8877 7.27878 1.8877H9.14377Z" stroke="#374D5E" style="stroke:#374D5E;stroke:color(display-p3 0.2175 0.3031 0.3686);stroke-opacity:1;" stroke-width="1.5"/>
</svg>
