<svg width="25" height="24" viewBox="0 0 25 24" fill="none" xmlns="http://www.w3.org/2000/svg">
<path d="M9.39844 9.00039V16.9004C9.39844 18.4004 7.79844 19.4004 6.39844 18.6004L3.89844 17.2004C3.59844 17.1004 3.39844 16.8004 3.39844 16.4004V7.60039C3.39844 7.20039 3.59844 6.90039 3.89844 6.70039L11.8984 2.30039C12.1984 2.10039 12.5984 2.10039 12.8984 2.30039L20.8984 6.70039C21.1984 6.90039 21.3984 7.20039 21.3984 7.60039V16.4004C21.3984 16.8004 21.1984 17.1004 20.8984 17.3004L12.8984 21.7004C12.5984 21.9004 12.1984 21.9004 11.8984 21.7004L10.3984 21.0004" stroke="#22262A" stroke-width="1.5" stroke-miterlimit="10" stroke-linecap="round" stroke-linejoin="round"/>
<path d="M17.3992 10.8C17.3992 9.8 16.5992 9 15.6992 9H13.8992C12.8992 9 12.1992 9.8 12.1992 10.7C12.1992 11.7 12.9992 12.4 13.8992 12.4H15.6992C16.6992 12.4 17.3992 13.2 17.3992 14.1C17.3992 15.1 16.5992 15.8 15.6992 15.8H13.8992C12.8992 15.8 12.1992 15 12.1992 14.1" stroke="#22262A" stroke-width="1.5" stroke-miterlimit="10" stroke-linecap="round" stroke-linejoin="round"/>
</svg>
