<?xml version="1.0" encoding="utf-8"?>
<!-- Generator: Adobe Illustrator 26.0.2, SVG Export Plug-In . SVG Version: 6.00 Build 0)  -->
<svg version="1.1" id="Layer_1" xmlns="http://www.w3.org/2000/svg" xmlns:xlink="http://www.w3.org/1999/xlink" x="0px" y="0px"
	 viewBox="0 0 487 184.7" style="enable-background:new 0 0 487 184.7;" xml:space="preserve">
<style type="text/css">
	.st0{fill:none;stroke:#DFDACE;stroke-width:2.9882;stroke-miterlimit:3.9843;}
</style>
<path class="st0" d="M6.4,65.9c-0.2,1.2,0.5,2,1.7,2h8c0.8,0,1.5-0.7,1.6-1.3L22.8,33c0.1,0,0.3,0,0.3,0l15.7,34.8
	c0.3,0.5,0.7,1,1.5,1h1.6c0.8,0,1.3-0.4,1.5-1L58.9,33c0,0,0.2,0,0.3,0l5.2,33.6c0.2,0.6,0.9,1.3,1.7,1.3h8.1c1.2,0,1.9-0.8,1.6-2
	L65.3,6.3C65.2,5.6,64.7,5,63.7,5h-1.4c-0.8,0-1.2,0.4-1.5,0.9L41.3,47.7c-0.1,0-0.1,0-0.3,0L21.5,5.9C21.2,5.3,20.7,5,20,5h-1.4
	c-1,0-1.5,0.6-1.6,1.3L6.4,65.9z M109.7,67.9h7.7c1.4,0,2.2-0.9,2.6-1.8l4.3-9.6h26.5l4.3,9.6c0.6,1.2,1.2,1.8,2.6,1.8h7.7
	c1.3,0,2-1.2,1.5-2.3L139.7,5.9c-0.3-0.5-0.6-1-1.5-1h-0.9c-0.8,0-1.2,0.4-1.5,1l-27.6,59.7C107.7,66.8,108.4,67.9,109.7,67.9z
	 M128.7,46.7l8.7-19.5h0.3l8.9,19.5H128.7z M203.4,66.2c0,0.9,0.7,1.7,1.7,1.7h8.2c0.9,0,1.7-0.8,1.7-1.7V43.6h9.8l11.8,23.5
	c0.2,0.4,0.6,0.8,1.4,0.8h9.3c1.5,0,2.1-1.4,1.5-2.6l-12.1-22.5c7.7-3.1,13.1-9.8,13.1-17.9c0-10.5-8.7-19.1-19.3-19.1h-25.4
	c-1,0-1.7,0.8-1.7,1.7V66.2z M215,34.1V16.5h14.5c4.7,0,8.8,3.9,8.8,8.6c0,5-4.1,9-8.8,9H215z M290.8,66.2c0,0.9,0.7,1.7,1.6,1.7h21
	c17.1,0,31.1-13.9,31.1-31.1c0-17-14-30.9-31.1-30.9h-21c-0.9,0-1.6,0.8-1.6,1.7V66.2z M302.3,57.1V16.6h10.1
	c11.5,0,19.9,8.7,19.9,20.2c0,11.6-8.4,20.3-19.9,20.3H302.3z M384.7,66.2c0,0.9,0.8,1.7,1.7,1.7h8.2c0.9,0,1.7-0.8,1.7-1.7V7.5
	c0-0.9-0.8-1.7-1.7-1.7h-8.2c-0.9,0-1.7,0.8-1.7,1.7V66.2z M437.6,61.9c1.8,1.7,8.3,6.9,19.5,6.9c12.5,0,20.4-8.4,20.4-17.6
	c0-11.4-9.9-16.6-18.5-20c-7.2-2.9-10.5-5.8-10.5-9.9c0-2.8,2.7-6.2,7.8-6.2c4.9,0,11.6,4.4,12.3,4.9c1.1,0.7,2.4,0,3.1-1.1l3.4-5.1
	c0.6-0.9,0.4-2.4-0.5-2.9c-1.8-1.3-8.7-5.9-17.7-5.9c-14.1,0-19.9,9.1-19.9,17c0,10.5,8.3,15.8,16.7,19.1c7.4,3,11.3,6.1,11.3,10.6
	c0,3.8-3.5,6.8-8.1,6.8c-5.8,0-12.9-5.2-13.4-5.5c-0.8-0.6-2.3-0.6-3,0.6l-3.2,5.5C436.4,60.6,436.8,61.1,437.6,61.9z M9.6,170.1
	c1.8,1.7,8.3,6.9,19.5,6.9c12.5,0,20.4-8.4,20.4-17.6c0-11.4-9.9-16.6-18.5-20c-7.2-2.9-10.5-5.8-10.5-9.9c0-2.8,2.7-6.2,7.8-6.2
	c4.9,0,11.6,4.4,12.3,4.9c1.1,0.7,2.4,0,3.1-1.1l3.4-5.1c0.6-0.9,0.4-2.4-0.5-2.9c-1.8-1.3-8.7-5.9-17.7-5.9
	c-14.1,0-19.9,9.1-19.9,17c0,10.5,8.3,15.8,16.7,19.1c7.4,3,11.3,6.1,11.3,10.6c0,3.8-3.5,6.8-8.1,6.8c-5.8,0-12.9-5.2-13.4-5.5
	c-0.8-0.6-2.3-0.6-3,0.6l-3.2,5.5C8.3,168.9,8.8,169.3,9.6,170.1z M100.5,174.5c0,0.9,0.8,1.7,1.7,1.7h8.2c0.9,0,1.7-0.8,1.7-1.7
	v-49.7h13.6c1,0,1.7-0.8,1.7-1.7v-7.3c0-0.9-0.7-1.7-1.7-1.7H86.9c-1,0-1.7,0.8-1.7,1.7v7.3c0,0.9,0.7,1.7,1.7,1.7h13.6V174.5z
	 M167.1,152.7c0,13.5,10.7,24.4,24.6,24.4c14,0,24.7-10.9,24.7-24.4v-36.9c0-0.9-0.8-1.7-1.7-1.7h-8.4c-1,0-1.7,0.8-1.7,1.7v36.3
	c0,7.4-5.2,13.4-12.9,13.4c-7.7,0-12.9-5.9-12.9-13.5v-36.3c0-0.9-0.7-1.7-1.7-1.7h-8.4c-0.9,0-1.7,0.8-1.7,1.7V152.7z M263,174.5
	c0,0.9,0.7,1.7,1.6,1.7h21c17.1,0,31.1-13.9,31.1-31.1c0-17-14-30.9-31.1-30.9h-21c-0.9,0-1.6,0.8-1.6,1.7V174.5z M274.5,165.3
	v-40.5h10.1c11.5,0,19.9,8.7,19.9,20.2c0,11.6-8.4,20.3-19.9,20.3H274.5z M359.9,174.5c0,0.9,0.8,1.7,1.7,1.7h8.2
	c0.9,0,1.7-0.8,1.7-1.7v-58.7c0-0.9-0.8-1.7-1.7-1.7h-8.2c-0.9,0-1.7,0.8-1.7,1.7V174.5z M414.6,145.2c0,17.7,14.1,31.8,31.8,31.8
	c17.7,0,31.9-14.1,31.9-31.8c0-17.7-14.2-32-31.9-32C428.7,113.2,414.6,127.5,414.6,145.2z M426.1,145.2c0-11.2,9.1-20.5,20.3-20.5
	s20.4,9.3,20.4,20.5c0,11.2-9.2,20.3-20.4,20.3S426.1,156.4,426.1,145.2z"/>
</svg>
