<svg width="25" height="24" viewBox="0 0 25 24" fill="none" xmlns="http://www.w3.org/2000/svg">
<path d="M15.3984 22H9.39844C4.39844 22 2.39844 20 2.39844 15V9C2.39844 4 4.39844 2 9.39844 2H15.3984C20.3984 2 22.3984 4 22.3984 9V15C22.3984 20 20.3984 22 15.3984 22Z" stroke="#22262A" stroke-width="1.5" stroke-linecap="round" stroke-linejoin="round"/>
<path d="M7.89844 16V8H9.89844C10.9984 8 11.8984 8.9 11.8984 10C11.8984 11.1 10.9984 12 9.89844 12H7.89844" stroke="#22262A" stroke-width="1.5" stroke-miterlimit="10" stroke-linecap="round" stroke-linejoin="round"/>
<path d="M16.8984 11H15.5984C14.8984 11 14.3984 11.6 14.3984 12.2C14.3984 12.9 14.9984 13.4 15.5984 13.4C16.2984 13.4 16.7984 14 16.7984 14.6C16.7984 15.3 16.1984 15.8 15.5984 15.8H14.3984" stroke="#22262A" stroke-width="1.5" stroke-miterlimit="10" stroke-linecap="round" stroke-linejoin="round"/>
</svg>
