<svg width="64" height="24" viewBox="0 0 64 24" fill="none" xmlns="http://www.w3.org/2000/svg">
<path d="M2.14613 18.0004C1.91213 18.0004 1.78613 17.8564 1.78613 17.6404V5.76039C1.78613 5.52639 1.91213 5.40039 2.14613 5.40039H3.06413C3.28013 5.40039 3.42413 5.52639 3.42413 5.76039V17.6404C3.42413 17.8564 3.28013 18.0004 3.06413 18.0004H2.14613Z" fill="#8897A2" style="fill:#8897A2;fill:color(display-p3 0.5333 0.5922 0.6353);fill-opacity:1;"/>
<path d="M6.65823 18.0004C6.42423 18.0004 6.29823 17.8564 6.29823 17.6404V9.39639C6.29823 9.18039 6.42423 9.03639 6.65823 9.03639H7.46823C7.68423 9.03639 7.82823 9.18039 7.82823 9.39639V10.2604C8.60223 9.32439 9.73623 8.80239 10.9242 8.80239C12.7422 8.80239 14.1462 9.99039 14.1462 11.9704V17.6404C14.1462 17.8564 14.0022 18.0004 13.7862 18.0004H12.9222C12.6882 18.0004 12.5622 17.8564 12.5622 17.6404V12.4204C12.5622 10.9084 11.5722 10.2604 10.4922 10.2604C9.44823 10.2604 8.47623 10.8904 7.86423 11.5384V17.6404C7.86423 17.8564 7.73823 18.0004 7.50423 18.0004H6.65823Z" fill="#8897A2" style="fill:#8897A2;fill:color(display-p3 0.5333 0.5922 0.6353);fill-opacity:1;"/>
<path d="M23.512 18.0004C23.278 18.0004 23.152 17.8564 23.152 17.6404V6.89439H19.642C19.426 6.89439 19.282 6.75039 19.282 6.53439V5.76039C19.282 5.52639 19.426 5.40039 19.642 5.40039H28.3C28.516 5.40039 28.66 5.52639 28.66 5.76039V6.53439C28.66 6.75039 28.516 6.89439 28.3 6.89439H24.79V17.6404C24.79 17.8564 24.646 18.0004 24.43 18.0004H23.512Z" fill="#8897A2" style="fill:#8897A2;fill:color(display-p3 0.5333 0.5922 0.6353);fill-opacity:1;"/>
<path d="M32.6176 18.2344C29.9896 18.2344 27.9916 16.2724 27.9916 13.5364C27.9916 10.8184 30.0076 8.80239 32.5816 8.80239C34.8856 8.80239 37.0096 10.3684 37.1536 13.6264C37.1536 13.8604 37.0276 13.9864 36.7936 13.9864H29.6476C29.7736 15.6064 30.9256 16.8664 32.6176 16.8664C33.6796 16.8664 34.5436 16.3624 35.0656 15.5884C35.1736 15.4084 35.3176 15.3364 35.4976 15.3544L36.4516 15.4264C36.7036 15.4444 36.8296 15.6064 36.7036 15.8404C35.9296 17.3344 34.3996 18.2344 32.6176 18.2344ZM35.4976 12.8344C35.3176 11.3224 34.1836 10.1524 32.5816 10.1524C30.9616 10.1524 29.8276 11.3044 29.6296 12.8344H35.4976Z" fill="#8897A2" style="fill:#8897A2;fill:color(display-p3 0.5333 0.5922 0.6353);fill-opacity:1;"/>
<path d="M38.1321 18.0004C37.8441 18.0004 37.7361 17.8024 37.9161 17.5684L40.9401 13.3924L38.2401 9.46839C38.0781 9.23439 38.2041 9.03639 38.4921 9.03639H39.5001C39.6981 9.03639 39.8421 9.10839 39.9501 9.27039L41.9841 12.3844L44.0901 9.27039C44.1981 9.10839 44.3241 9.03639 44.5221 9.03639H45.5121C45.8001 9.03639 45.9081 9.23439 45.7461 9.46839L42.9381 13.4464L45.8721 17.5684C46.0521 17.8024 45.9441 18.0004 45.6561 18.0004H44.6121C44.4321 18.0004 44.2881 17.9284 44.1801 17.7664L41.9121 14.5084L39.6081 17.7664C39.5001 17.9284 39.3561 18.0004 39.1761 18.0004H38.1321Z" fill="#8897A2" style="fill:#8897A2;fill:color(display-p3 0.5333 0.5922 0.6353);fill-opacity:1;"/>
<path d="M50.1097 18.2524C48.0937 18.2524 46.8337 17.0644 46.8337 15.3724C46.8337 13.7344 47.9677 12.7624 49.8397 12.7624H51.7297C52.7017 12.7624 53.0257 12.3664 53.0257 11.7184V11.6284C53.0257 10.6204 52.1617 10.0984 50.9197 10.0984C49.8757 10.0984 49.0477 10.4944 48.5077 10.9984C48.3817 11.1064 48.2197 11.1424 48.0757 11.0344L47.4817 10.6204C47.2837 10.4764 47.2477 10.2244 47.4277 10.0444C48.2197 9.32439 49.4617 8.80239 50.9377 8.80239C53.0977 8.80239 54.6277 9.77439 54.6277 11.9164V17.6224C54.6277 17.8204 54.4657 18.0004 54.2677 18.0004H53.4217C53.2237 18.0004 53.0437 17.8384 53.0437 17.6404V16.6504C52.6117 17.6404 51.4957 18.2524 50.1097 18.2524ZM50.5417 17.0824C51.8917 17.0824 53.0437 16.2724 53.0437 14.6164V13.4284C52.8457 13.8424 52.3057 13.8964 51.8017 13.8964H50.1817C49.0657 13.8964 48.4537 14.4904 48.4537 15.3364C48.4537 16.2364 49.0297 17.0824 50.5417 17.0824Z" fill="#8897A2" style="fill:#8897A2;fill:color(display-p3 0.5333 0.5922 0.6353);fill-opacity:1;"/>
<path d="M59.7579 18.2344C58.4439 18.2344 57.3819 17.7844 56.6799 17.2624C56.4999 17.1184 56.4819 16.9384 56.6079 16.7584L57.0399 16.2184C57.1659 16.0204 57.3459 16.0024 57.5439 16.1464C58.1739 16.6324 58.9659 16.9744 59.7939 16.9744C60.8379 16.9744 61.5939 16.4344 61.5939 15.6244C61.5939 15.0304 61.2699 14.6704 60.4599 14.3824L58.6959 13.7524C57.2739 13.2484 56.6979 12.4384 56.6979 11.3944C56.6979 9.82839 58.0299 8.80239 59.9199 8.80239C60.8559 8.80239 61.8819 9.07239 62.6919 9.70239C62.8719 9.82839 62.8719 10.0264 62.7279 10.2064L62.3499 10.6384C62.2059 10.8184 62.0259 10.8364 61.8279 10.6924C61.2159 10.2424 60.4959 10.0264 59.8839 10.0264C59.0019 10.0264 58.2279 10.4584 58.2279 11.2504C58.2279 11.7724 58.5339 12.1504 59.2719 12.4204L61.1979 13.1044C62.6019 13.6084 63.1599 14.4724 63.1599 15.4984C63.1599 16.9564 62.0259 18.2344 59.7579 18.2344Z" fill="#8897A2" style="fill:#8897A2;fill:color(display-p3 0.5333 0.5922 0.6353);fill-opacity:1;"/>
</svg>
