<svg width="25" height="24" viewBox="0 0 25 24" fill="none" xmlns="http://www.w3.org/2000/svg">
<mask id="path-1-outside-1_709_681" maskUnits="userSpaceOnUse" x="1.84766" y="2.07812" width="22" height="20" fill="black">
<rect fill="white" x="1.84766" y="2.07812" width="22" height="20"/>
<path d="M21.9352 6.51492C22.0617 6.35926 21.8934 6.14449 21.7035 6.20882C21.4585 6.29176 21.2081 6.36393 20.9536 6.42363C20.7444 6.4727 20.6229 6.17211 20.7776 6.02306C21.1216 5.69178 21.4041 5.30057 21.6106 4.86768C21.69 4.70127 21.5066 4.54773 21.3422 4.63115C20.7215 4.94605 20.0613 5.17773 19.3787 5.31967C19.3113 5.33367 19.2421 5.31066 19.1937 5.26175C18.8352 4.89919 18.4102 4.60851 17.9416 4.40581C17.4392 4.18847 16.8974 4.07693 16.35 4.07813C14.1352 4.07813 12.3539 5.87345 12.3539 8.07657C12.3539 8.29865 12.3732 8.52073 12.4067 8.73847C12.4265 8.86783 12.3247 8.98634 12.1941 8.97658C9.08439 8.74411 6.30824 7.26983 4.39655 5.0315C4.3058 4.92524 4.13656 4.93844 4.07492 5.06385C3.80582 5.61132 3.66597 6.21473 3.66797 6.82735C3.66797 7.96089 4.13882 8.98493 4.89777 9.71416C5.0433 9.85399 4.94437 10.1111 4.7472 10.068C4.37747 9.9872 4.01987 9.8545 3.68531 9.67297C3.66592 9.66245 3.64219 9.67639 3.64219 9.69845C3.64219 11.3367 4.61859 12.7383 6.02207 13.3596C6.21604 13.4455 6.20304 13.7422 5.99118 13.7527C5.92546 13.7559 5.85963 13.7576 5.79375 13.7578C5.64401 13.7578 5.49893 13.7493 5.35538 13.7353C5.2086 13.7211 5.09214 13.8598 5.14824 13.9962C5.66784 15.2596 6.82078 16.1959 8.21732 16.4194C8.40291 16.449 8.47801 16.6941 8.32239 16.7995C7.03167 17.6735 5.48135 18.1781 3.81328 18.1781C3.77907 18.1781 3.74513 18.178 3.71142 18.1778C3.49935 18.1761 3.40657 18.4676 3.59327 18.5682C5.198 19.433 7.03172 19.9219 8.98594 19.9219C16.3359 19.9219 20.3578 13.8328 20.3578 8.54767C20.3578 8.41087 20.3578 8.27408 20.3521 8.13729C20.3492 8.0688 20.3797 8.00295 20.4345 7.96175C20.9909 7.54317 21.4964 7.05472 21.9352 6.51492Z"/>
</mask>
<path d="M16.35 4.07813V5.57814L16.3533 5.57813L16.35 4.07813ZM3.66797 6.82735H5.16798L5.16796 6.82246L3.66797 6.82735ZM5.79375 13.7578V15.2578L5.79794 15.2578L5.79375 13.7578ZM20.3521 8.13729L18.8534 8.20028L20.3521 8.13729ZM20.4345 7.96175L21.3362 9.16044L20.4345 7.96175ZM3.71142 18.1778L3.72295 16.6778L3.71142 18.1778ZM3.59327 18.5682L4.30487 17.2477L3.59327 18.5682ZM8.21732 16.4194L7.98033 17.9005L8.21732 16.4194ZM8.32239 16.7995L9.16346 18.0415L8.32239 16.7995ZM5.35538 13.7353L5.21026 15.2283L5.35538 13.7353ZM5.14824 13.9962L3.76098 14.5668L5.14824 13.9962ZM4.89777 9.71416L3.8585 10.7958L4.89777 9.71416ZM4.7472 10.068L5.06745 8.60258L4.7472 10.068ZM19.3787 5.31967L19.6841 6.78826L19.3787 5.31967ZM19.1937 5.26175L18.1271 6.31641L19.1937 5.26175ZM12.4067 8.73847L10.9241 8.96619L12.4067 8.73847ZM12.1941 8.97658L12.306 7.48075L12.1941 8.97658ZM6.02207 13.3596L5.41485 14.7312L6.02207 13.3596ZM5.99118 13.7527L5.91702 12.2545L5.99118 13.7527ZM21.3422 4.63115L20.6636 3.29346L21.3422 4.63115ZM20.9536 6.42363L20.611 4.96327L20.9536 6.42363ZM20.7776 6.02306L21.8182 7.10349L20.7776 6.02306ZM3.68531 9.67297L2.96994 10.9914L3.68531 9.67297ZM21.2224 4.78806C21.0211 4.8562 20.8169 4.91497 20.611 4.96327L21.2961 7.884C21.5993 7.81289 21.8959 7.72731 22.1845 7.62958L21.2224 4.78806ZM21.8182 7.10349C22.2915 6.6476 22.6803 6.10922 22.9645 5.5134L20.2567 4.22195C20.1279 4.49192 19.9517 4.73597 19.7371 4.94263L21.8182 7.10349ZM20.6636 3.29346C20.1609 3.5485 19.6262 3.73613 19.0733 3.85108L19.6841 6.78826C20.4965 6.61933 21.2822 6.34361 22.0209 5.96883L20.6636 3.29346ZM20.2603 4.20709C19.7669 3.70812 19.1821 3.30807 18.5372 3.0291L17.3461 5.78252C17.6384 5.90895 17.9035 6.09027 18.1271 6.31641L20.2603 4.20709ZM18.5372 3.0291C17.8457 2.72998 17.1001 2.57647 16.3467 2.57814L16.3533 5.57813C16.6948 5.57738 17.0327 5.64695 17.3461 5.78252L18.5372 3.0291ZM16.35 2.57813C13.3027 2.57813 10.8539 5.04903 10.8539 8.07657H13.8539C13.8539 6.69786 14.9676 5.57813 16.35 5.57813V2.57813ZM10.8539 8.07657C10.8539 8.38491 10.8807 8.68369 10.9241 8.96619L13.8893 8.51075C13.8658 8.35776 13.8539 8.21239 13.8539 8.07657H10.8539ZM12.306 7.48075C9.60429 7.27879 7.1953 5.99879 5.53716 4.05734L3.25594 6.00567C5.42117 8.54087 8.56448 10.2094 12.0823 10.4724L12.306 7.48075ZM2.72875 4.40216C2.35794 5.15657 2.16522 5.98806 2.16798 6.83224L5.16796 6.82246C5.16672 6.44141 5.25371 6.06607 5.42109 5.72554L2.72875 4.40216ZM2.16797 6.82735C2.16797 8.38528 2.81706 9.79513 3.8585 10.7958L5.93704 8.63253C5.46058 8.17473 5.16797 7.5365 5.16797 6.82735L2.16797 6.82735ZM5.06745 8.60258C4.83528 8.55185 4.61075 8.46852 4.40068 8.35454L2.96994 10.9914C3.429 11.2405 3.91966 11.4226 4.42695 11.5334L5.06745 8.60258ZM2.14219 9.69845C2.14219 11.9502 3.48705 13.8778 5.41485 14.7312L6.6293 11.988C5.75012 11.5988 5.14219 10.7232 5.14219 9.69845H2.14219ZM5.91702 12.2545C5.87459 12.2566 5.83209 12.2577 5.78956 12.2578L5.79794 15.2578C5.88716 15.2576 5.97632 15.2552 6.06533 15.2508L5.91702 12.2545ZM5.79375 12.2578C5.70141 12.2578 5.60562 12.2526 5.5005 12.2424L5.21026 15.2283C5.39223 15.246 5.58661 15.2578 5.79375 15.2578V12.2578ZM3.76098 14.5668C4.47712 16.308 6.06237 17.5936 7.98033 17.9005L8.4543 14.9382C7.5792 14.7982 6.85857 14.2112 6.53549 13.4257L3.76098 14.5668ZM7.48132 15.5575C6.4324 16.2678 5.17379 16.6781 3.81328 16.6781V19.6781C5.78891 19.6781 7.63094 19.0793 9.16346 18.0415L7.48132 15.5575ZM3.81328 16.6781C3.78264 16.6781 3.75255 16.678 3.72295 16.6778L3.69989 19.6777C3.73772 19.678 3.77551 19.6781 3.81328 19.6781V16.6781ZM2.88166 19.8886C4.70046 20.8688 6.77814 21.4219 8.98594 21.4219V18.4219C7.28531 18.4219 5.69553 17.9971 4.30487 17.2477L2.88166 19.8886ZM8.98594 21.4219C17.3366 21.4219 21.8578 14.4779 21.8578 8.54767H18.8578C18.8578 13.1878 15.3353 18.4219 8.98594 18.4219V21.4219ZM21.8578 8.54767C21.8578 8.41611 21.858 8.24781 21.8507 8.07429L18.8534 8.20028C18.8576 8.30035 18.8578 8.40564 18.8578 8.54767H21.8578ZM21.3362 9.16044C21.9913 8.66768 22.5846 8.09412 23.0992 7.46097L20.7711 5.56887C20.4083 6.01533 19.9906 6.41866 19.5328 6.76305L21.3362 9.16044ZM21.8507 8.07429C21.8682 8.4896 21.6833 8.89933 21.3362 9.16044L19.5328 6.76305C19.0761 7.10658 18.8302 7.64799 18.8534 8.20028L21.8507 8.07429ZM3.72295 16.6778C2.84325 16.671 2.25665 17.2874 2.06981 17.8913C1.87692 18.5148 2.03144 19.4304 2.88166 19.8886L4.30487 17.2477C4.9684 17.6053 5.07596 18.3249 4.9358 18.7779C4.8017 19.2114 4.36752 19.6828 3.69989 19.6777L3.72295 16.6778ZM7.98033 17.9005C7.43317 17.813 7.07562 17.4098 6.95648 16.9964C6.83075 16.5602 6.93234 15.9292 7.48132 15.5575L9.16346 18.0415C9.86806 17.5643 10.0099 16.7581 9.83914 16.1656C9.67495 15.596 9.18705 15.0554 8.4543 14.9382L7.98033 17.9005ZM5.5005 12.2424C4.39213 12.1346 3.21393 13.2366 3.76098 14.5668L6.53549 13.4257C6.97036 14.483 6.02506 15.3075 5.21026 15.2283L5.5005 12.2424ZM3.8585 10.7958C3.44878 10.4021 3.38225 9.83352 3.56234 9.39254C3.65526 9.16503 3.83263 8.92143 4.1194 8.7544C4.42375 8.57712 4.76652 8.53682 5.06745 8.60258L4.42695 11.5334C5.34586 11.7342 6.07687 11.1702 6.33965 10.5268C6.58213 9.9331 6.49229 9.16604 5.93704 8.63253L3.8585 10.7958ZM5.53716 4.05734C4.82368 3.22195 3.31763 3.20413 2.72875 4.40216L5.42109 5.72554C4.9555 6.67275 3.78791 6.62854 3.25594 6.00567L5.53716 4.05734ZM19.0733 3.85108C19.5372 3.75463 19.9757 3.91921 20.2603 4.20709L18.1271 6.31641C18.5084 6.70211 19.0855 6.91272 19.6841 6.78826L19.0733 3.85108ZM10.9241 8.96619C10.8092 8.21869 11.3985 7.41291 12.306 7.48075L12.0823 10.4724C13.2509 10.5598 14.0438 9.51697 13.8893 8.51075L10.9241 8.96619ZM5.41485 14.7312C4.87461 14.4921 4.63195 13.9587 4.66184 13.4891C4.67741 13.2445 4.76927 12.9455 5.00522 12.6872C5.25874 12.4097 5.5972 12.2703 5.91702 12.2545L6.06533 15.2508C6.49108 15.2298 6.91061 15.0494 7.2201 14.7106C7.51201 14.3911 7.63472 14.0106 7.65578 13.6797C7.69664 13.0377 7.3635 12.3131 6.6293 11.988L5.41485 14.7312ZM22.9645 5.5134C23.3213 4.76525 23.0686 3.96987 22.5482 3.52046C22.0541 3.09377 21.3153 2.96279 20.6636 3.29346L22.0209 5.96883C21.5335 6.21608 20.9686 6.12018 20.5874 5.791C20.18 5.43911 19.9792 4.8037 20.2567 4.22195L22.9645 5.5134ZM20.611 4.96327C21.415 4.77469 21.9496 5.33356 22.11 5.71191C22.2607 6.06713 22.2819 6.65689 21.8182 7.10349L19.7371 4.94263C19.1186 5.53828 19.1232 6.35286 19.3482 6.88337C19.583 7.43701 20.2829 8.12164 21.2961 7.884L20.611 4.96327ZM4.40068 8.35454C3.39566 7.80922 2.14219 8.52355 2.14219 9.69845H5.14219C5.14219 10.8292 3.93619 11.5157 2.96994 10.9914L4.40068 8.35454ZM22.1845 7.62958C21.6089 7.82451 21.0474 7.58257 20.7482 7.19283C20.4338 6.78338 20.3382 6.10151 20.7711 5.56887L23.0992 7.46097C23.6586 6.77267 23.5421 5.90559 23.1278 5.36592C22.7286 4.84595 21.988 4.5288 21.2224 4.78806L22.1845 7.62958Z" fill="#22262A" mask="url(#path-1-outside-1_709_681)"/>
</svg>
